<svg width="100" height="100" viewBox="0 0 100 100" fill="none" xmlns="http://www.w3.org/2000/svg">
<rect width="100" height="100" rx="20" fill="black"/>
<path d="M23.8805 26.3936C23.8805 27.673 23.4035 28.773 22.4495 29.6936C21.4955 30.5986 20.1202 31.1603 18.3235 31.3787V34H15.9386V31.4489C14.762 31.3865 13.641 31.1837 12.5758 30.8404C11.5105 30.4972 10.6519 30.0759 10 29.5766L11.3117 26.7213C11.9159 27.1582 12.6235 27.5248 13.4343 27.8213C14.2452 28.1177 15.08 28.305 15.9386 28.383V24.4745C14.8097 24.2092 13.8557 23.9128 13.0766 23.5851C12.2975 23.2574 11.6456 22.7816 11.1209 22.1574C10.5962 21.5177 10.3339 20.6752 10.3339 19.6298C10.3339 18.3348 10.8109 17.227 11.7649 16.3064C12.7348 15.3702 14.126 14.8007 15.9386 14.5979V12H18.3235V14.5511C20.2792 14.7071 21.893 15.183 23.165 15.9787L21.9725 18.8574C20.78 18.1865 19.5637 17.7809 18.3235 17.6404V21.6191C19.4365 21.8688 20.3746 22.1574 21.1378 22.4851C21.9169 22.7972 22.5688 23.2731 23.0934 23.9128C23.6181 24.5369 23.8805 25.3638 23.8805 26.3936ZM14.1737 19.4426C14.1737 19.8326 14.3247 20.1525 14.6268 20.4021C14.9289 20.6518 15.3662 20.8624 15.9386 21.034V17.7106C15.3344 17.8511 14.8892 18.0773 14.603 18.3894C14.3168 18.6858 14.1737 19.0369 14.1737 19.4426ZM18.3235 28.2894C18.8959 28.1645 19.3252 27.9617 19.6114 27.6808C19.8976 27.4 20.0407 27.0645 20.0407 26.6745C20.0407 26.2844 19.8896 25.9645 19.5875 25.7149C19.3014 25.4652 18.88 25.2468 18.3235 25.0596V28.2894Z" fill="#00C514"/>
<path d="M24.0752 31.1915H36V33.2979H24.0752V31.1915Z" fill="#00C514"/>
</svg>
