<svg width="2199" height="2500" viewBox="0 0 2199 2500" fill="none" xmlns="http://www.w3.org/2000/svg">
<g clip-path="url(#clip0)">
<path d="M250.376 2260.21C222.461 2252.33 202.295 2228.06 199.671 2199.17L6.84842 76.4913C3.12379 35.489 35.4175 0.14251 76.5887 0.158567L2122.31 0.95642C2163.44 0.972462 2195.7 36.2785 2192 77.2434L2000.81 2197.43C1998.2 2226.32 1978.04 2250.62 1950.12 2258.5L1116.7 2493.9C1104.26 2497.41 1091.1 2497.41 1078.66 2493.9L250.376 2260.21ZM1784.03 2137.35C1812.24 2129.62 1832.67 2105.16 1835.26 2076.02L1994.87 276.14C1998.5 235.2 1966.25 199.957 1925.15 199.957H1171.34C1132.59 199.957 1101.21 231.435 1101.34 270.183L1107.67 2231.15C1107.82 2277.24 1151.71 2310.61 1196.17 2298.43L1784.03 2137.35ZM1017.06 552.118C1017.06 513.458 985.72 482.118 947.06 482.118H868.212C829.613 482.118 798.298 513.363 798.212 551.962L795.999 1542.48C795.896 1588.58 752.048 1621.99 707.581 1609.86L459.984 1542.34C415.363 1530.17 371.416 1563.85 371.566 1610.1L371.95 1728C372.053 1759.55 393.247 1787.13 423.706 1795.35L928.816 1931.71C973.305 1943.72 1017.06 1910.21 1017.06 1864.13V552.118Z" fill="#FDD83C"/>
<path opacity="0.986" d="M372.124 1781.43L371.267 1518.14C371.267 1518.14 642.279 1594.47 795.795 1633.92L798.368 482.976H1017.06V1955.53L372.124 1781.43Z" fill="#EBEBEB" fill-opacity="0.9216"/>
<path d="M1101 199H2002L1831.24 2139.27L1101 2339V199ZM1784.9 1814.16L1844.11 1088.72L1406.48 1138.01V750.644L1873.28 748.915L1892.16 484.333L1187.67 487.792L1197.11 1451.01L1622.72 1377.51L1616.71 1591.95L1187.67 1706.94L1191.96 1969.8L1784.9 1814.16Z" fill="#FDD83C"/>
</g>
<defs>
<clipPath id="clip0">
<rect width="2199" height="2500" fill="white"/>
</clipPath>
</defs>
</svg>
